{"accessors":[{"bufferView":0,"componentType":5126,"count":4,"max":[50.0,0.0,50.0],"min":[-50.0,0.0,-50.0],"normalized":false,"type":"VEC3"},{"bufferView":1,"componentType":5126,"count":4,"max":[1.0,0.0,-1.5259021893143654e-05,1.0],"min":[1.0,0.0,-1.5259021893143654e-05,1.0],"normalized":false,"type":"VEC4"},{"bufferView":2,"componentType":5126,"count":4,"max":[0.0,1.0,-1.5259021893143654e-05],"min":[0.0,1.0,-1.5259021893143654e-05],"normalized":false,"type":"VEC3"},{"bufferView":3,"componentType":5126,"count":4,"max":[1.0,1.0],"min":[0.0,0.0],"normalized":false,"type":"VEC2"},{"bufferView":4,"componentType":5121,"count":6,"max":[3],"min":[0],"normalized":false,"type":"SCALAR"},{"bufferView":5,"componentType":5126,"count":36,"max":[5.0,2.9897232055664063,8.410186767578125],"min":[-5.0,-2.9897232055664063,-8.410186767578125],"normalized":false,"type":"VEC3"},{"bufferView":6,"componentType":5126,"count":36,"max":[0.0,0.0,7.630093023180962e-05,-1.0],"min":[-1.0,-1.0,-1.0,-1.0],"normalized":false,"type":"VEC4"},{"bufferView":7,"componentType":5126,"count":36,"max":[1.0,1.0,1.0],"min":[-1.0,-1.0,-1.0],"normalized":false,"type":"VEC3"},{"bufferView":8,"componentType":5126,"count":36,"max":[1.0,1.0],"min":[0.0,0.0],"normalized":false,"type":"VEC2"},{"bufferView":9,"componentType":5121,"count":36,"max":[35],"min":[0],"normalized":false,"type":"SCALAR"},{"bufferView":10,"componentType":5126,"count":24,"max":[4.456002235412598,2.743368148803711,8.410186767578125],"min":[-4.209097385406494,-3.588672637939453,-8.410186767578125],"normalized":false,"type":"VEC3"},{"bufferView":11,"componentType":5126,"count":24,"max":[0.0,0.0,-4.5778462663292885e-05,1.0],"min":[-1.0,0.0,-1.0,-1.0],"normalized":false,"type":"VEC4"},{"bufferView":12,"componentType":5126,"count":24,"max":[0.8143686652183533,0.580348014831543,1.0],"min":[-0.8362292647361755,-1.0,-1.0],"normalized":false,"type":"VEC3"},{"bufferView":13,"componentType":5126,"count":24,"max":[1.0,1.0],"min":[0.0,0.0],"normalized":false,"type":"VEC2"},{"bufferView":14,"componentType":5121,"count":24,"max":[23],"min":[0],"normalized":false,"type":"SCALAR"},{"bufferView":15,"componentType":5126,"count":36,"max":[5.0,0.8831558227539063,0.1987457275390625],"min":[-5.0,-0.8831558227539063,-0.1987457275390625],"normalized":false,"type":"VEC3"},{"bufferView":16,"componentType":5126,"count":36,"max":[7.284454345703125,0.3932380676269531,0.1987457275390625],"min":[-7.284454345703125,-0.3932380676269531,-0.1987457275390625],"normalized":false,"type":"VEC3"},{"bufferView":17,"componentType":5126,"count":36,"max":[3.002716064453125,1.438751220703125,1.20550537109375],"min":[-3.002716064453125,-1.438751220703125,-1.20550537109375],"normalized":false,"type":"VEC3"},{"bufferView":18,"componentType":5126,"count":36,"max":[4.270732879638672,0.8194351196289063,1.20550537109375],"min":[-4.270732879638672,-0.8194351196289063,-1.20550537109375],"normalized":false,"type":"VEC3"},{"bufferView":19,"componentType":5126,"count":36,"max":[0.10000000149011612,5.009500026702881,0.10000000149011612],"min":[-0.10000000149011612,-5.009500026702881,-0.10000000149011612],"normalized":false,"type":"VEC3"},{"bufferView":20,"componentType":5126,"count":96,"max":[0.05000000074505806,11.50860595703125,0.05000000074505806],"min":[-0.05000000074505806,-11.50860595703125,-0.05000000074505806],"normalized":false,"type":"VEC3"},{"bufferView":21,"componentType":5126,"count":96,"max":[1.0,6.474052497651428e-05,0.9906065464019775,1.0],"min":[-0.990612268447876,-2.157951530534774e-05,-0.9906095266342163,-1.0],"normalized":false,"type":"VEC4"},{"bufferView":22,"componentType":5126,"count":96,"max":[0.9906069040298462,1.0,0.9906066060066223],"min":[-0.9906069040298462,-1.0,-0.9905989766120911],"normalized":false,"type":"VEC3"},{"bufferView":23,"componentType":5126,"count":96,"max":[1.0,1.0],"min":[0.0,0.0],"normalized":false,"type":"VEC2"},{"bufferView":24,"componentType":5121,"count":96,"max":[95],"min":[0],"normalized":false,"type":"SCALAR"}],"asset":{"generator":"Godot Engine v4.6.1.stable.mono.official@14d19694e0c88a3f9e82d899a0400f27a24c176e","version":"2.0"},"bufferViews":[{"buffer":0,"byteLength":48,"byteStride":12,"target":34962},{"buffer":0,"byteLength":64,"byteOffset":48,"byteStride":16,"target":34962},{"buffer":0,"byteLength":48,"byteOffset":112,"byteStride":12,"target":34962},{"buffer":0,"byteLength":32,"byteOffset":160,"byteStride":8,"target":34962},{"buffer":0,"byteLength":6,"byteOffset":192,"target":34963},{"buffer":0,"byteLength":432,"byteOffset":200,"byteStride":12,"target":34962},{"buffer":0,"byteLength":576,"byteOffset":632,"byteStride":16,"target":34962},{"buffer":0,"byteLength":432,"byteOffset":1208,"byteStride":12,"target":34962},{"buffer":0,"byteLength":288,"byteOffset":1640,"byteStride":8,"target":34962},{"buffer":0,"byteLength":36,"byteOffset":1928,"target":34963},{"buffer":0,"byteLength":288,"byteOffset":1964,"byteStride":12,"target":34962},{"buffer":0,"byteLength":384,"byteOffset":2252,"byteStride":16,"target":34962},{"buffer":0,"byteLength":288,"byteOffset":2636,"byteStride":12,"target":34962},{"buffer":0,"byteLength":192,"byteOffset":2924,"byteStride":8,"target":34962},{"buffer":0,"byteLength":24,"byteOffset":3116,"target":34963},{"buffer":0,"byteLength":432,"byteOffset":3140,"byteStride":12,"target":34962},{"buffer":0,"byteLength":432,"byteOffset":3572,"byteStride":12,"target":34962},{"buffer":0,"byteLength":432,"byteOffset":4004,"byteStride":12,"target":34962},{"buffer":0,"byteLength":432,"byteOffset":4436,"byteStride":12,"target":34962},{"buffer":0,"byteLength":432,"byteOffset":4868,"byteStride":12,"target":34962},{"buffer":0,"byteLength":1152,"byteOffset":5300,"byteStride":12,"target":34962},{"buffer":0,"byteLength":1536,"byteOffset":6452,"byteStride":16,"target":34962},{"buffer":0,"byteLength":1152,"byteOffset":7988,"byteStride":12,"target":34962},{"buffer":0,"byteLength":768,"byteOffset":9140,"byteStride":8,"target":34962},{"buffer":0,"byteLength":96,"byteOffset":9908,"target":34963}],"buffers":[{"byteLength":10004,"uri":"home0.bin"}],"extensions":{"OMI_physics_shape":{"shapes":[{"trimesh":{"mesh":0},"type":"trimesh"}]}},"extensionsUsed":["GODOT_single_root","OMI_physics_body","OMI_physics_shape"],"materials":[{"pbrMetallicRoughness":{"baseColorFactor":[0.016717474907636642,0.016717467457056046,0.016717465594410896,1.0],"metallicFactor":0.0,"roughnessFactor":1.0}},{},{},{},{},{},{},{},{}],"meshes":[{"primitives":[{"attributes":{"NORMAL":2,"POSITION":0,"TANGENT":1,"TEXCOORD_0":3},"indices":4,"material":0,"mode":4}]},{"name":"House3","primitives":[{"attributes":{"NORMAL":7,"POSITION":5,"TANGENT":6,"TEXCOORD_0":8},"indices":9,"material":1,"mode":4}]},{"name":"Roof2","primitives":[{"attributes":{"NORMAL":12,"POSITION":10,"TANGENT":11,"TEXCOORD_0":13},"indices":14,"material":2,"mode":4}]},{"name":"Door2","primitives":[{"attributes":{"NORMAL":7,"POSITION":15,"TANGENT":6,"TEXCOORD_0":8},"indices":9,"material":3,"mode":4}]},{"name":"Window2","primitives":[{"attributes":{"NORMAL":7,"POSITION":16,"TANGENT":6,"TEXCOORD_0":8},"indices":9,"material":4,"mode":4}]},{"name":"CSGBox3D2","primitives":[{"attributes":{"NORMAL":7,"POSITION":17,"TANGENT":6,"TEXCOORD_0":8},"indices":9,"material":5,"mode":4}]},{"name":"CSGBox3D23","primitives":[{"attributes":{"NORMAL":7,"POSITION":18,"TANGENT":6,"TEXCOORD_0":8},"indices":9,"material":6,"mode":4}]},{"name":"CSGBox3D4","primitives":[{"attributes":{"NORMAL":7,"POSITION":19,"TANGENT":6,"TEXCOORD_0":8},"indices":9,"material":7,"mode":4}]},{"name":"CSGCylinder3D2","primitives":[{"attributes":{"NORMAL":22,"POSITION":20,"TANGENT":21,"TEXCOORD_0":23},"indices":24,"material":8,"mode":4}]}],"nodes":[{"children":[1,4,11,14],"name":"Home"},{"children":[2],"mesh":0,"name":"Ground"},{"children":[3],"extensions":{"OMI_physics_body":{"motion":{"type":"static"}}},"name":"StaticBody3D"},{"extensions":{"OMI_physics_body":{"collider":{"shape":0}}},"name":"CollisionShape3D"},{"children":[5,6,9,10],"name":"House","scale":[1.5398849248886108,1.0,1.0],"translation":[0.0,3.6291399002075195,-19.553836822509766]},{"mesh":1,"name":"House3","translation":[0.0,-0.9463424682617188,0.0]},{"children":[7,8],"mesh":2,"name":"Roof2","scale":[1.43577241897583,1.0,1.1529059410095215],"translation":[0.09626435488462448,5.446610450744629,0.0]},{"matrix":[0.7189010381698608,-1.0087743997573853,0.0,0.0,0.4842437207698822,0.7115126848220825,0.0,0.0,0.0,0.0,1.0000001192092896,0.0,2.993063449859619,2.200423240661621,0.0,1.0],"name":"Roof22"},{"matrix":[-0.6468529105186462,-0.9863497018814087,0.0,0.0,0.543118953704834,-0.7177756428718567,0.0,0.0,0.0,0.0,1.0000001192092896,0.0,-3.23628568649292,3.6429319381713867,0.0,1.0],"name":"Roof3"},{"mesh":3,"name":"Door2","scale":[0.12018027156591415,2.141361951828003,1.1529059410095215],"translation":[1.4869980812072754,-1.711726188659668,8.57694149017334]},{"mesh":4,"name":"Window2","scale":[0.12018027156591415,2.141361951828003,1.1529059410095215],"translation":[-1.9758870601654053,0.4439072608947754,8.57694149017334]},{"children":[12,13],"name":"Vehicle","translation":[-11.218530654907227,0.0,8.046394348144531]},{"mesh":5,"name":"CSGBox3D2","translation":[0.9113059043884277,1.7284679412841797,-2.3527143001556396]},{"mesh":6,"name":"CSGBox3D23","translation":[1.0220885276794434,1.109151840209961,-2.3527143001556396]},{"children":[15,16],"name":"Current Line"},{"mesh":7,"name":"CSGBox3D4","translation":[11.354669570922852,4.50970458984375,0.6972339153289795]},{"mesh":8,"name":"CSGCylinder3D2","rotation":[0.5706895589828491,0.14499934017658234,-0.15225355327129364,0.7937931418418884],"translation":[6.703043460845947,5.884829998016357,-9.054130554199219]}],"scene":0,"scenes":[{"nodes":[0]}]}